<?xml version="1.0" encoding="UTF-8" standalone="no"?>
<svg width="512" height="358.02701" viewBox="0 0 135.46666 94.727975" version="1.1" id="svg8" inkscape:version="1.1 (c68e22c387, 2021-05-23)" sodipodi:docname="Icon_Frontier_Corps.svg" xmlns:inkscape="http://www.inkscape.org/namespaces/inkscape" xmlns:sodipodi="http://sodipodi.sourceforge.net/DTD/sodipodi-0.dtd" xmlns="http://www.w3.org/2000/svg" xmlns:svg="http://www.w3.org/2000/svg" xmlns:rdf="http://www.w3.org/1999/02/22-rdf-syntax-ns#" xmlns:cc="http://creativecommons.org/ns#" xmlns:dc="http://purl.org/dc/elements/1.1/">
  <defs id="defs2"/>
  <sodipodi:namedview id="base" pagecolor="#ffffff" bordercolor="#666666" borderopacity="1.0" inkscape:pageopacity="0.0" inkscape:pageshadow="2" inkscape:zoom="0.49497475" inkscape:cx="29.294424" inkscape:cy="229.30463" inkscape:document-units="px" inkscape:current-layer="layer1" inkscape:document-rotation="0" showgrid="false" fit-margin-top="0" fit-margin-left="0" fit-margin-right="0" fit-margin-bottom="0" inkscape:window-width="1366" inkscape:window-height="697" inkscape:window-x="-8" inkscape:window-y="-8" inkscape:window-maximized="1" units="px" showborder="true" inkscape:pagecheckerboard="true"/>
  <metadata id="metadata5">
    <rdf:RDF>
      <cc:Work rdf:about="">
        <dc:format>image/svg+xml</dc:format>
        <dc:type rdf:resource="http://purl.org/dc/dcmitype/StillImage"/>
      </cc:Work>
    </rdf:RDF>
  </metadata>
  <g inkscape:label="Layer 1" inkscape:groupmode="layer" id="layer1" transform="translate(-84.950142,-125.16682)">
    <g id="g875" transform="matrix(2.8822546,0,0,2.8822539,-175.55096,-257.80624)">
      <path style="fill:#50b24a;fill-opacity:1;stroke:none;stroke-width:0.265;stroke-linecap:butt;stroke-linejoin:round;stroke-miterlimit:4;stroke-dasharray:none;stroke-opacity:1" d="m 117.35657,139.53256 c -6.42695,-6.51222 -14.08519,-0.19208 -14.09493,5.67412 -0.009,5.50285 6.74472,11.63884 14.22857,5.48438 -9.26046,4.6053 -11.83395,-3.40375 -11.77099,-5.47908 0.0822,-2.71085 2.67842,-10.59221 11.63735,-5.67942 z" id="path847" sodipodi:nodetypes="cscsc"/>
      <path style="fill:#029eda;fill-opacity:1;stroke:none;stroke-width:0.359;stroke-linecap:butt;stroke-linejoin:round;stroke-miterlimit:4;stroke-dasharray:none;stroke-opacity:1" d="m 105.34767,137.65295 c 8.86269,-8.68688 19.59034,-0.27293 19.60377,7.55221 0.0124,7.34044 -9.30088,15.52546 -19.62101,7.3158 5.77166,2.88178 9.44001,2.56763 12.58348,-0.0377 3.03167,-2.51269 2.94976,-5.66489 3.18084,-7.38796 0.16813,-1.25365 -0.61882,-5.99014 -4.16693,-8.20896 -2.30862,-1.44369 -6.45705,-2.56537 -11.58015,0.76661 z" id="path847-9" sodipodi:nodetypes="cscsssc"/>
      <path style="fill:#f8bc30;fill-opacity:1;stroke:none;stroke-width:0.264583px;stroke-linecap:butt;stroke-linejoin:miter;stroke-opacity:1" d="m 111.38514,139.83682 v 3.473 h -3.308 v 3.472 h 3.308 v 3.355 h 3.219 v -3.355 h 3.39531 v -3.47219 l -3.39531,1.9e-4 v -3.46694 z" id="path864" sodipodi:nodetypes="ccccccccccccc"/>
      <g aria-label="FRONTIER CORPS" transform="scale(0.97811225,1.0223775)" id="text868" style="font-style:normal;font-weight:normal;font-size:5.55968px;line-height:1.25;font-family:sans-serif;fill:#3ea1c3;fill-opacity:1;stroke:none;stroke-width:0.463306">
        <path d="m 94.577609,157.46922 v 1.44693 h 0.670528 q 0.230748,0 0.336621,-0.10045 0.108588,-0.10315 0.143879,-0.40449 h 0.100443 v 1.24605 h -0.100443 q -0.0027,-0.21446 -0.05701,-0.31491 -0.05158,-0.10044 -0.146593,-0.14931 -0.0923,-0.0516 -0.276898,-0.0516 h -0.670528 v 1.15645 q 0,0.27962 0.03529,0.3692 0.02715,0.0679 0.114017,0.11673 0.119446,0.0651 0.249751,0.0651 h 0.13302 v 0.10045 H 93.52974 V 160.849 h 0.130305 q 0.228033,0 0.331192,-0.13302 0.06515,-0.0869 0.06515,-0.41806 v -2.37806 q 0,-0.27962 -0.03529,-0.3692 -0.02715,-0.0679 -0.111302,-0.11673 -0.116732,-0.0652 -0.249751,-0.0652 H 93.52974 v -0.10044 h 2.739119 l 0.03529,0.80898 h -0.09501 q -0.07058,-0.2579 -0.165596,-0.37734 -0.0923,-0.12216 -0.230748,-0.17646 -0.135734,-0.0543 -0.423491,-0.0543 z" style="font-style:normal;font-variant:normal;font-weight:normal;font-stretch:normal;font-size:5.55968px;font-family:'Times New Roman';-inkscape-font-specification:'Times New Roman, ';fill:#3ea1c3;fill-opacity:1;stroke-width:0.463306" id="path836"/>
        <path d="m 100.28931,160.94945 h -0.982715 l -1.246042,-1.72111 q -0.138449,0.005 -0.225319,0.005 -0.03529,0 -0.07601,0 -0.04072,-0.003 -0.08416,-0.005 v 1.06958 q 0,0.34748 0.07601,0.43164 0.103158,0.11944 0.309474,0.11944 h 0.143879 v 0.10045 H 96.627198 V 160.849 h 0.138449 q 0.233463,0 0.333907,-0.15202 0.05701,-0.0841 0.05701,-0.39906 v -2.37806 q 0,-0.34748 -0.07601,-0.43164 -0.105873,-0.11945 -0.314904,-0.11945 h -0.138449 v -0.10044 h 1.341056 q 0.586372,0 0.86327,0.0869 0.279613,0.0842 0.472356,0.31491 0.195458,0.22803 0.195458,0.54565 0,0.33933 -0.222605,0.58908 -0.21989,0.24976 -0.684101,0.35291 l 0.760112,1.05602 q 0.26061,0.36377 0.447924,0.48321 0.187313,0.11945 0.488639,0.15202 z m -2.614242,-1.89214 q 0.05158,0 0.08958,0.003 0.03801,0 0.06244,0 0.526649,0 0.792689,-0.22804 0.268754,-0.22803 0.268754,-0.58094 0,-0.34477 -0.217175,-0.55923 -0.21446,-0.21717 -0.570085,-0.21717 -0.157451,0 -0.426205,0.0516 z" style="font-style:normal;font-variant:normal;font-weight:normal;font-stretch:normal;font-size:5.55968px;font-family:'Times New Roman';-inkscape-font-specification:'Times New Roman, ';fill:#3ea1c3;fill-opacity:1;stroke-width:0.463306" id="path838"/>
        <path d="m 102.27375,157.18418 q 0.71668,0 1.24061,0.54565 0.52665,0.54294 0.52665,1.35734 0,0.83884 -0.52936,1.39264 -0.52937,0.55379 -1.28134,0.55379 -0.76011,0 -1.27861,-0.54022 -0.5158,-0.54022 -0.5158,-1.39806 0,-0.87685 0.59724,-1.43064 0.5185,-0.4805 1.24061,-0.4805 z m -0.0516,0.19817 q -0.49407,0 -0.79269,0.36648 -0.37191,0.45607 -0.37191,1.33563 0,0.90127 0.38548,1.3872 0.2959,0.3692 0.78183,0.3692 0.51851,0 0.85513,-0.40449 0.33934,-0.40449 0.33934,-1.2759 0,-0.94471 -0.37192,-1.40892 -0.29861,-0.3692 -0.82526,-0.3692 z" style="font-style:normal;font-variant:normal;font-weight:normal;font-stretch:normal;font-size:5.55968px;font-family:'Times New Roman';-inkscape-font-specification:'Times New Roman, ';fill:#3ea1c3;fill-opacity:1;stroke-width:0.463306" id="path840"/>
        <path d="m 104.18217,157.26833 h 0.99901 l 2.25047,2.76084 v -2.12289 q 0,-0.33933 -0.076,-0.42349 -0.10044,-0.11402 -0.31762,-0.11402 h -0.12759 v -0.10044 h 1.28134 v 0.10044 h -0.13031 q -0.23346,0 -0.33119,0.14117 -0.0597,0.0869 -0.0597,0.39634 v 3.10289 h -0.0977 l -2.42693,-2.96444 v 2.26677 q 0,0.33933 0.0733,0.42349 0.10316,0.11401 0.31762,0.11401 h 0.13031 v 0.10045 h -1.28133 V 160.849 h 0.12759 q 0.23617,0 0.3339,-0.14116 0.0597,-0.0869 0.0597,-0.39634 v -2.55995 q -0.16017,-0.18732 -0.24433,-0.24704 -0.0814,-0.0597 -0.2416,-0.1113 -0.0787,-0.0244 -0.2389,-0.0244 z" style="font-style:normal;font-variant:normal;font-weight:normal;font-stretch:normal;font-size:5.55968px;font-family:'Times New Roman';-inkscape-font-specification:'Times New Roman, ';fill:#3ea1c3;fill-opacity:1;stroke-width:0.463306" id="path842"/>
        <path d="m 111.4874,157.26833 0.0407,0.86327 h -0.10316 q -0.0299,-0.22803 -0.0814,-0.32576 -0.0842,-0.15745 -0.22532,-0.23075 -0.13845,-0.076 -0.36648,-0.076 h -0.51851 v 2.81242 q 0,0.33933 0.0733,0.42349 0.10316,0.11401 0.31762,0.11401 h 0.12759 v 0.10045 h -1.56095 V 160.849 h 0.13031 q 0.23346,0 0.33119,-0.14116 0.0597,-0.0869 0.0597,-0.39634 v -2.81242 h -0.44249 q -0.2579,0 -0.36649,0.038 -0.14116,0.0516 -0.2416,0.19817 -0.10045,0.14659 -0.11945,0.39634 h -0.10316 l 0.0434,-0.86327 z" style="font-style:normal;font-variant:normal;font-weight:normal;font-stretch:normal;font-size:5.55968px;font-family:'Times New Roman';-inkscape-font-specification:'Times New Roman, ';fill:#3ea1c3;fill-opacity:1;stroke-width:0.463306" id="path844"/>
        <path d="m 113.38225,160.849 v 0.10045 h -1.57723 V 160.849 h 0.1303 q 0.22803,0 0.33119,-0.13302 0.0652,-0.0869 0.0652,-0.41806 v -2.37806 q 0,-0.27962 -0.0353,-0.3692 -0.0271,-0.0679 -0.1113,-0.11673 -0.11944,-0.0652 -0.24975,-0.0652 h -0.1303 v -0.10044 h 1.57723 v 0.10044 h -0.13302 q -0.22532,0 -0.32848,0.13302 -0.0679,0.0869 -0.0679,0.41807 v 2.37806 q 0,0.27962 0.0353,0.3692 0.0271,0.0679 0.11401,0.11673 0.11673,0.0651 0.24704,0.0651 z" style="font-style:normal;font-variant:normal;font-weight:normal;font-stretch:normal;font-size:5.55968px;font-family:'Times New Roman';-inkscape-font-specification:'Times New Roman, ';fill:#3ea1c3;fill-opacity:1;stroke-width:0.463306" id="path846"/>
        <path d="m 114.67987,157.46922 v 1.45507 h 0.80898 q 0.3149,0 0.42077,-0.095 0.14117,-0.12488 0.15746,-0.43978 h 0.10044 v 1.28133 h -0.10044 q -0.038,-0.26875 -0.076,-0.34477 -0.0489,-0.095 -0.16016,-0.1493 -0.1113,-0.0543 -0.34205,-0.0543 h -0.80898 v 1.21347 q 0,0.24432 0.0217,0.29861 0.0217,0.0516 0.076,0.0842 0.0543,0.0299 0.20632,0.0299 h 0.62437 q 0.31219,0 0.45336,-0.0434 0.14116,-0.0434 0.27147,-0.17103 0.16831,-0.16831 0.34476,-0.50765 h 0.10859 l -0.31762,0.923 H 113.632 V 160.849 h 0.13031 q 0.1303,0 0.24703,-0.0624 0.0869,-0.0434 0.11673,-0.13031 0.0326,-0.0869 0.0326,-0.35562 V 157.909 q 0,-0.3502 -0.0706,-0.43164 -0.0977,-0.10859 -0.32576,-0.10859 H 113.632 v -0.10044 h 2.83685 l 0.0407,0.80626 h -0.10587 q -0.057,-0.29047 -0.12759,-0.39906 -0.0679,-0.10858 -0.2036,-0.16559 -0.10859,-0.0407 -0.38278,-0.0407 z" style="font-style:normal;font-variant:normal;font-weight:normal;font-stretch:normal;font-size:5.55968px;font-family:'Times New Roman';-inkscape-font-specification:'Times New Roman, ';fill:#3ea1c3;fill-opacity:1;stroke-width:0.463306" id="path848"/>
        <path d="m 120.67119,160.94945 h -0.98272 l -1.24604,-1.72111 q -0.13845,0.005 -0.22532,0.005 -0.0353,0 -0.076,0 -0.0407,-0.003 -0.0842,-0.005 v 1.06958 q 0,0.34748 0.076,0.43164 0.10316,0.11944 0.30948,0.11944 h 0.14388 v 0.10045 h -1.57724 V 160.849 h 0.13845 q 0.23346,0 0.33391,-0.15202 0.057,-0.0841 0.057,-0.39906 v -2.37806 q 0,-0.34748 -0.076,-0.43164 -0.10588,-0.11945 -0.31491,-0.11945 h -0.13845 v -0.10044 h 1.34106 q 0.58637,0 0.86327,0.0869 0.27961,0.0842 0.47235,0.31491 0.19546,0.22803 0.19546,0.54565 0,0.33933 -0.2226,0.58908 -0.21989,0.24976 -0.6841,0.35291 l 0.76011,1.05602 q 0.26061,0.36377 0.44792,0.48321 0.18732,0.11945 0.48865,0.15202 z m -2.61425,-1.89214 q 0.0516,0 0.0896,0.003 0.038,0 0.0624,0 0.52665,0 0.79269,-0.22804 0.26876,-0.22803 0.26876,-0.58094 0,-0.34477 -0.21718,-0.55923 -0.21446,-0.21717 -0.57008,-0.21717 -0.15745,0 -0.42621,0.0516 z" style="font-style:normal;font-variant:normal;font-weight:normal;font-stretch:normal;font-size:5.55968px;font-family:'Times New Roman';-inkscape-font-specification:'Times New Roman, ';fill:#3ea1c3;fill-opacity:1;stroke-width:0.463306" id="path850"/>
        <path d="m 125.35945,157.18418 0.0842,1.25147 h -0.0842 q -0.16831,-0.56194 -0.4805,-0.80898 -0.31219,-0.24704 -0.74925,-0.24704 -0.36649,0 -0.66239,0.18732 -0.2959,0.1846 -0.46692,0.5918 -0.16831,0.4072 -0.16831,1.01258 0,0.4995 0.16016,0.86598 0.16017,0.36649 0.4805,0.56194 0.32305,0.19546 0.73568,0.19546 0.35834,0 0.63253,-0.15202 0.27418,-0.15474 0.60266,-0.61081 l 0.0841,0.0543 q -0.2769,0.49136 -0.64609,0.71939 -0.3692,0.22803 -0.87685,0.22803 -0.91485,0 -1.41706,-0.67867 -0.37463,-0.50493 -0.37463,-1.18903 0,-0.55108 0.24703,-1.01258 0.24704,-0.4615 0.67868,-0.71396 0.43435,-0.25518 0.94742,-0.25518 0.39906,0 0.78726,0.19545 0.11402,0.0597 0.16288,0.0597 0.0733,0 0.12759,-0.0516 0.0706,-0.0733 0.10045,-0.2036 z" style="font-style:normal;font-variant:normal;font-weight:normal;font-stretch:normal;font-size:5.55968px;font-family:'Times New Roman';-inkscape-font-specification:'Times New Roman, ';fill:#3ea1c3;fill-opacity:1;stroke-width:0.463306" id="path852"/>
        <path d="m 127.75381,157.18418 q 0.71667,0 1.24061,0.54565 0.52665,0.54294 0.52665,1.35734 0,0.83884 -0.52937,1.39264 -0.52936,0.55379 -1.28133,0.55379 -0.76011,0 -1.27862,-0.54022 -0.51579,-0.54022 -0.51579,-1.39806 0,-0.87685 0.59723,-1.43064 0.51851,-0.4805 1.24062,-0.4805 z m -0.0516,0.19817 q -0.49408,0 -0.79269,0.36648 -0.37191,0.45607 -0.37191,1.33563 0,0.90127 0.38548,1.3872 0.2959,0.3692 0.78183,0.3692 0.51851,0 0.85513,-0.40449 0.33933,-0.40449 0.33933,-1.2759 0,-0.94471 -0.37191,-1.40892 -0.29861,-0.3692 -0.82526,-0.3692 z" style="font-style:normal;font-variant:normal;font-weight:normal;font-stretch:normal;font-size:5.55968px;font-family:'Times New Roman';-inkscape-font-specification:'Times New Roman, ';fill:#3ea1c3;fill-opacity:1;stroke-width:0.463306" id="path854"/>
        <path d="m 133.49265,160.94945 h -0.98271 l -1.24604,-1.72111 q -0.13845,0.005 -0.22532,0.005 -0.0353,0 -0.076,0 -0.0407,-0.003 -0.0842,-0.005 v 1.06958 q 0,0.34748 0.076,0.43164 0.10316,0.11944 0.30948,0.11944 h 0.14387 v 0.10045 H 129.8305 V 160.849 h 0.13845 q 0.23346,0 0.33391,-0.15202 0.057,-0.0841 0.057,-0.39906 v -2.37806 q 0,-0.34748 -0.076,-0.43164 -0.10587,-0.11945 -0.3149,-0.11945 h -0.13845 v -0.10044 h 1.34106 q 0.58637,0 0.86327,0.0869 0.27961,0.0842 0.47235,0.31491 0.19546,0.22803 0.19546,0.54565 0,0.33933 -0.2226,0.58908 -0.21989,0.24976 -0.68411,0.35291 l 0.76012,1.05602 q 0.26061,0.36377 0.44792,0.48321 0.18731,0.11945 0.48864,0.15202 z m -2.61424,-1.89214 q 0.0516,0 0.0896,0.003 0.038,0 0.0624,0 0.52665,0 0.79269,-0.22804 0.26876,-0.22803 0.26876,-0.58094 0,-0.34477 -0.21718,-0.55923 -0.21446,-0.21717 -0.57008,-0.21717 -0.15746,0 -0.42621,0.0516 z" style="font-style:normal;font-variant:normal;font-weight:normal;font-stretch:normal;font-size:5.55968px;font-family:'Times New Roman';-inkscape-font-specification:'Times New Roman, ';fill:#3ea1c3;fill-opacity:1;stroke-width:0.463306" id="path856"/>
        <path d="m 134.58396,159.22562 v 1.0723 q 0,0.34748 0.076,0.43164 0.10316,0.11944 0.31219,0.11944 h 0.14116 v 0.10045 h -1.57723 V 160.849 h 0.13845 q 0.23346,0 0.33391,-0.15202 0.0543,-0.0841 0.0543,-0.39906 v -2.37806 q 0,-0.34748 -0.0733,-0.43164 -0.10587,-0.11945 -0.3149,-0.11945 h -0.13845 v -0.10044 h 1.3492 q 0.49407,0 0.77911,0.10316 0.28505,0.10044 0.4805,0.34205 0.19546,0.24161 0.19546,0.5728 0,0.45064 -0.29861,0.73296 -0.2959,0.28233 -0.83884,0.28233 -0.13302,0 -0.28776,-0.019 -0.15474,-0.019 -0.33119,-0.057 z m 0,-0.15474 q 0.14388,0.0272 0.25518,0.0407 0.1113,0.0136 0.19003,0.0136 0.28233,0 0.48593,-0.21718 0.20631,-0.21989 0.20631,-0.56737 0,-0.23889 -0.0977,-0.44249 -0.0977,-0.20632 -0.27689,-0.30676 -0.17917,-0.10316 -0.40721,-0.10316 -0.13845,0 -0.35562,0.0516 z" style="font-style:normal;font-variant:normal;font-weight:normal;font-stretch:normal;font-size:5.55968px;font-family:'Times New Roman';-inkscape-font-specification:'Times New Roman, ';fill:#3ea1c3;fill-opacity:1;stroke-width:0.463306" id="path858"/>
        <path d="m 139.08491,157.18418 v 1.27318 h -0.10044 q -0.0489,-0.36648 -0.17646,-0.58365 -0.12487,-0.21718 -0.35834,-0.34477 -0.23346,-0.12759 -0.48321,-0.12759 -0.28233,0 -0.46693,0.17374 -0.18459,0.17103 -0.18459,0.39092 0,0.16831 0.11673,0.30676 0.16831,0.2036 0.80083,0.54293 0.51579,0.2769 0.7031,0.42621 0.19003,0.14659 0.29048,0.34748 0.10315,0.20089 0.10315,0.42078 0,0.41806 -0.32576,0.7221 -0.32305,0.30133 -0.83341,0.30133 -0.16016,0 -0.30133,-0.0244 -0.0841,-0.0136 -0.35019,-0.0977 -0.26333,-0.0869 -0.33391,-0.0869 -0.0679,0 -0.10859,0.0407 -0.038,0.0407 -0.057,0.16831 h -0.10044 v -1.26233 h 0.10044 q 0.0706,0.39635 0.19003,0.59452 0.11945,0.19546 0.36377,0.32576 0.24704,0.13031 0.54022,0.13031 0.33934,0 0.5348,-0.17917 0.19817,-0.17917 0.19817,-0.42349 0,-0.13574 -0.076,-0.27419 -0.0733,-0.13845 -0.23075,-0.25789 -0.10587,-0.0814 -0.57823,-0.34477 -0.47235,-0.26604 -0.67324,-0.42349 -0.19817,-0.15745 -0.30133,-0.34748 -0.10316,-0.19003 -0.10316,-0.41806 0,-0.39634 0.30405,-0.68139 0.30404,-0.28775 0.77368,-0.28775 0.29319,0 0.62166,0.14387 0.15203,0.0679 0.21446,0.0679 0.0706,0 0.11402,-0.0407 0.0462,-0.0434 0.0733,-0.17102 z" style="font-style:normal;font-variant:normal;font-weight:normal;font-stretch:normal;font-size:5.55968px;font-family:'Times New Roman';-inkscape-font-specification:'Times New Roman, ';fill:#3ea1c3;fill-opacity:1;stroke-width:0.463306" id="path860"/>
      </g>
    </g>
  </g>
</svg>