<?xml version="1.0" encoding="utf-8"?>
<!-- Generator: Adobe Illustrator 25.4.1, SVG Export Plug-In . SVG Version: 6.00 Build 0)  -->
<svg version="1.1" baseProfile="tiny"
	 id="svg8" sodipodi:docname="Icon_Frontier_Corps.svg" xmlns:cc="http://creativecommons.org/ns#" xmlns:dc="http://purl.org/dc/elements/1.1/" xmlns:inkscape="http://www.inkscape.org/namespaces/inkscape" xmlns:rdf="http://www.w3.org/1999/02/22-rdf-syntax-ns#" xmlns:sodipodi="http://sodipodi.sourceforge.net/DTD/sodipodi-0.dtd" xmlns:svg="http://www.w3.org/2000/svg"
	 xmlns="http://www.w3.org/2000/svg" xmlns:xlink="http://www.w3.org/1999/xlink" x="0px" y="0px" viewBox="0 0 256 256"
	 overflow="visible" xml:space="preserve">
<sodipodi:namedview  bordercolor="#666666" borderopacity="1.0" fit-margin-bottom="0" fit-margin-left="0" fit-margin-right="0" fit-margin-top="0" id="base" inkscape:current-layer="layer1" inkscape:cx="29.294424" inkscape:cy="229.30463" inkscape:document-rotation="0" inkscape:document-units="px" inkscape:pagecheckerboard="true" inkscape:pageopacity="0.0" inkscape:pageshadow="2" inkscape:window-height="697" inkscape:window-maximized="1" inkscape:window-width="1366" inkscape:window-x="-8" inkscape:window-y="-8" inkscape:zoom="0.49497475" pagecolor="#ffffff" showborder="true" showgrid="false" units="px">
	</sodipodi:namedview>
<g id="layer1" transform="translate(-84.950142,-125.16682)" inkscape:groupmode="layer" inkscape:label="Layer 1">
	<g id="g875" transform="matrix(2.8822546,0,0,2.8822539,-175.55096,-257.80624)">
		<path id="path847" sodipodi:nodetypes="cscsc" fill="#50B24A" d="M147.1,156.8c-24.3-24.6-53.2-0.7-53.3,21.4
			c0,20.8,25.5,44,53.8,20.7c-35,17.4-44.7-12.9-44.5-20.7C103.4,168,113.2,138.2,147.1,156.8z"/>
		<path id="path847-9" sodipodi:nodetypes="cscsssc" fill="#029EDA" d="M101.7,149.7c33.5-32.8,74-1,74.1,28.5
			c0,27.7-35.2,58.7-74.2,27.7c21.8,10.9,35.7,9.7,47.6-0.1c11.5-9.5,11.1-21.4,12-27.9c0.6-4.7-2.3-22.6-15.7-31
			C136.7,141.3,121,137.1,101.7,149.7L101.7,149.7z"/>
		<path id="path864" sodipodi:nodetypes="ccccccccccccc" fill="#F8BC30" d="M124.5,157.9V171H112v13.1h12.5v12.7h12.2v-12.7h12.8
			V171l-12.8,0v-13.1L124.5,157.9z"/>
	</g>
</g>
</svg>
